<svg width="64" height="64" viewBox="0 0 64 64" fill="none" xmlns="http://www.w3.org/2000/svg">
<path d="M19.7102 6.58317C20.1714 6.12197 20.402 5.89137 20.6712 5.72646C20.9098 5.58025 21.1699 5.4725 21.442 5.40718C21.7489 5.3335 22.075 5.3335 22.7272 5.3335H41.2726C41.9248 5.3335 42.251 5.3335 42.5579 5.40718C42.83 5.4725 43.0901 5.58025 43.3287 5.72646C43.5978 5.89137 43.8284 6.12197 44.2896 6.58317L57.4169 19.7105C57.8781 20.1717 58.1087 20.4023 58.2736 20.6714C58.4198 20.91 58.5276 21.1701 58.5929 21.4422C58.6666 21.7491 58.6666 22.0752 58.6666 22.7275V41.2729C58.6666 41.9251 58.6666 42.2512 58.5929 42.5581C58.5276 42.8302 58.4198 43.0903 58.2736 43.3289C58.1087 43.598 57.8781 43.8286 57.4169 44.2898L44.2896 57.4172C43.8284 57.8784 43.5978 58.109 43.3287 58.2739C43.0901 58.4201 42.83 58.5278 42.5579 58.5932C42.251 58.6668 41.9248 58.6668 41.2726 58.6668H22.7272C22.075 58.6668 21.7489 58.6668 21.442 58.5932C21.1699 58.5278 20.9098 58.4201 20.6712 58.2739C20.402 58.109 20.1714 57.8784 19.7102 57.4172L6.58293 44.2898C6.12173 43.8286 5.89112 43.598 5.72621 43.3289C5.58 43.0903 5.47226 42.8302 5.40693 42.5581C5.33325 42.2512 5.33325 41.9251 5.33325 41.2729V22.7275C5.33325 22.0752 5.33325 21.7491 5.40693 21.4422C5.47226 21.1701 5.58 20.91 5.72621 20.6714C5.89112 20.4023 6.12173 20.1717 6.58293 19.7105L19.7102 6.58317Z" stroke="url(#paint0_linear_156_592)" stroke-width="2" stroke-linecap="round" stroke-linejoin="round"/>
<path d="M20.3333 28.6666V38.6852C20.3333 39.2835 20.3333 39.5826 20.4243 39.8467C20.5049 40.0802 20.6364 40.2929 20.8092 40.4694C21.0047 40.669 21.2723 40.8028 21.8073 41.0703L30.8073 45.5703C31.2446 45.789 31.4633 45.8983 31.6926 45.9413C31.8957 45.9794 32.1041 45.9794 32.3072 45.9413C32.5366 45.8983 32.7552 45.789 33.1925 45.5703L42.1925 41.0703C42.7276 40.8028 42.9951 40.669 43.1906 40.4694C43.3635 40.2929 43.4949 40.0802 43.5755 39.8467C43.6666 39.5826 43.6666 39.2835 43.6666 38.6852V28.6666M15.3333 26.1666L31.4036 18.1314C31.6223 18.0221 31.7316 17.9674 31.8463 17.9459C31.9478 17.9269 32.052 17.9269 32.1536 17.9459C32.2682 17.9674 32.3776 18.0221 32.5962 18.1314L48.6666 26.1666L32.5962 34.2018C32.3776 34.3111 32.2682 34.3658 32.1536 34.3873C32.052 34.4063 31.9478 34.4063 31.8463 34.3873C31.7316 34.3658 31.6223 34.3111 31.4036 34.2018L15.3333 26.1666Z" stroke="url(#paint1_linear_156_592)" stroke-width="2" stroke-linecap="round" stroke-linejoin="round"/>
<defs>
<linearGradient id="paint0_linear_156_592" x1="31.9999" y1="5.3335" x2="31.9999" y2="58.6668" gradientUnits="userSpaceOnUse">
<stop stop-color="#00FD56"/>
<stop offset="1" stop-color="#4F60FF"/>
</linearGradient>
<linearGradient id="paint1_linear_156_592" x1="31.9999" y1="17.9316" x2="31.9999" y2="45.9699" gradientUnits="userSpaceOnUse">
<stop stop-color="#3EF97E"/>
<stop offset="0.802136" stop-color="#00FDFD"/>
</linearGradient>
</defs>
</svg>
