<svg width="64" height="64" viewBox="0 0 64 64" fill="none" xmlns="http://www.w3.org/2000/svg">
<path d="M19.8334 40.2498V39.9582C19.8334 37.5079 19.8334 36.2828 20.3103 35.347C20.7297 34.5238 21.399 33.8545 22.2222 33.435C23.1581 32.9582 24.3832 32.9582 26.8334 32.9582H36.1667C38.617 32.9582 39.8421 32.9582 40.778 33.435C41.6012 33.8545 42.2705 34.5238 42.6899 35.347C43.1667 36.2828 43.1667 37.5079 43.1667 39.9582V40.2498M19.8334 40.2498C18.2226 40.2498 16.9167 41.5557 16.9167 43.1665C16.9167 44.7773 18.2226 46.0832 19.8334 46.0832C21.4442 46.0832 22.7501 44.7773 22.7501 43.1665C22.7501 41.5557 21.4442 40.2498 19.8334 40.2498ZM43.1667 40.2498C41.5559 40.2498 40.2501 41.5557 40.2501 43.1665C40.2501 44.7773 41.5559 46.0832 43.1667 46.0832C44.7776 46.0832 46.0834 44.7773 46.0834 43.1665C46.0834 41.5557 44.7776 40.2498 43.1667 40.2498ZM31.5001 40.2498C29.8893 40.2498 28.5834 41.5557 28.5834 43.1665C28.5834 44.7773 29.8893 46.0832 31.5001 46.0832C33.1109 46.0832 34.4167 44.7773 34.4167 43.1665C34.4167 41.5557 33.1109 40.2498 31.5001 40.2498ZM31.5001 40.2498V25.6665M22.7501 25.6665H40.2501C41.6091 25.6665 42.2886 25.6665 42.8246 25.4445C43.5392 25.1485 44.107 24.5807 44.4031 23.866C44.6251 23.33 44.6251 22.6505 44.6251 21.2915C44.6251 19.9325 44.6251 19.253 44.4031 18.717C44.107 18.0023 43.5392 17.4345 42.8246 17.1385C42.2886 16.9165 41.6091 16.9165 40.2501 16.9165H22.7501C21.3911 16.9165 20.7116 16.9165 20.1756 17.1385C19.4609 17.4345 18.8931 18.0023 18.5971 18.717C18.3751 19.253 18.3751 19.9325 18.3751 21.2915C18.3751 22.6505 18.3751 23.33 18.5971 23.866C18.8931 24.5807 19.4609 25.1485 20.1756 25.4445C20.7116 25.6665 21.3911 25.6665 22.7501 25.6665Z" stroke="url(#paint0_linear_156_605)" stroke-width="2" stroke-linecap="round" stroke-linejoin="round"/>
<path d="M29.9279 6.48455C30.6842 6.06439 31.0623 5.85432 31.4628 5.77196C31.8172 5.69906 32.1828 5.69906 32.5372 5.77196C32.9377 5.85432 33.3158 6.06439 34.0721 6.48455L53.8054 17.4475C54.6041 17.8912 55.0035 18.1131 55.2943 18.4287C55.5516 18.7079 55.7463 19.0387 55.8654 19.3992C56 19.8067 56 20.2635 56 21.1773V42.8229C56 43.7366 56 44.1934 55.8654 44.6009C55.7463 44.9614 55.5516 45.2923 55.2943 45.5714C55.0035 45.887 54.6041 46.1089 53.8054 46.5526L34.0721 57.5156C33.3158 57.9357 32.9377 58.1458 32.5372 58.2282C32.1828 58.3011 31.8172 58.3011 31.4628 58.2282C31.0623 58.1458 30.6842 57.9357 29.9279 57.5156L10.1946 46.5526C9.39586 46.1089 8.99649 45.887 8.70569 45.5714C8.44842 45.2923 8.25373 44.9614 8.13463 44.6009C8 44.1934 8 43.7366 8 42.8229V21.1772C8 20.2635 8 19.8067 8.13463 19.3992C8.25373 19.0387 8.44842 18.7079 8.70569 18.4287C8.99649 18.1131 9.39586 17.8913 10.1946 17.4475L29.9279 6.48455Z" stroke="url(#paint1_linear_156_605)" stroke-width="2" stroke-linecap="round" stroke-linejoin="round"/>
<defs>
<linearGradient id="paint0_linear_156_605" x1="31.5001" y1="16.9165" x2="31.5001" y2="46.0832" gradientUnits="userSpaceOnUse">
<stop stop-color="#FFE1E1"/>
<stop offset="0.484385" stop-color="#FF2E87"/>
<stop offset="1" stop-color="#8F00FF"/>
</linearGradient>
<linearGradient id="paint1_linear_156_605" x1="32" y1="5.71729" x2="32" y2="58.2828" gradientUnits="userSpaceOnUse">
<stop stop-color="#FFC3C3"/>
<stop offset="0.666684" stop-color="#FF00B8"/>
<stop offset="1" stop-color="#FA4444"/>
</linearGradient>
</defs>
</svg>
